<svg xmlns="http://www.w3.org/2000/svg" width="32" height="32" viewBox="0 0 24 24" fill="none" stroke="white" stroke-width="2" stroke-linecap="round" stroke-linejoin="round">
  <path d="M12 0.5C5.37 0.5 0 5.87 0 12.5C0 17.79 3.438 22.23 8.205 23.74C8.805 23.85 9.025 23.48 9.025 23.17C9.025 22.89 9.015 22.22 9.01 21.25C5.672 21.91 4.968 19.64 4.968 19.64C4.422 18.26 3.633 17.9 3.633 17.9C2.546 17.21 3.717 17.23 3.717 17.23C4.922 17.32 5.555 18.48 5.555 18.48C6.633 20.27 8.391 19.76 9.05 19.48C9.158 18.71 9.467 18.19 9.805 17.89C7.145 17.59 4.343 16.51 4.343 11.77C4.343 10.44 4.822 9.37 5.62 8.54C5.49 8.24 5.063 6.97 5.74 5.27C5.74 5.27 6.75 4.95 9 6.43C9.97 6.17 11 6.04 12 6.03C13 6.04 14.03 6.17 15 6.43C17.25 4.95 18.26 5.27 18.26 5.27C18.937 6.97 18.51 8.24 18.38 8.54C19.18 9.37 19.657 10.44 19.657 11.77C19.657 16.52 16.85 17.59 14.18 17.88C14.61 18.25 15 19.01 15 20.17C15 21.85 14.985 22.92 14.985 23.17C14.985 23.48 15.2 23.86 15.81 23.74C20.577 22.23 24 17.79 24 12.5C24 5.87 18.63 0.5 12 0.5Z"></path>
</svg>
